<?xml version="1.0" encoding="UTF-8" standalone="no"?>
<!-- Created with Inkscape (http://www.inkscape.org/) -->

<svg
   width="48"
   height="120"
   viewBox="0 0 48 120"
   version="1.1"
   id="svg1"
   inkscape:version="1.4.2 (ebf0e940d0, 2025-05-08)"
   sodipodi:docname="drawing.svg"
   xmlns:inkscape="http://www.inkscape.org/namespaces/inkscape"
   xmlns:sodipodi="http://sodipodi.sourceforge.net/DTD/sodipodi-0.dtd"
   xmlns="http://www.w3.org/2000/svg"
   xmlns:svg="http://www.w3.org/2000/svg">
  <sodipodi:namedview
     id="namedview1"
     pagecolor="#ffffff"
     bordercolor="#000000"
     borderopacity="0.25"
     inkscape:showpageshadow="2"
     inkscape:pageopacity="0.0"
     inkscape:pagecheckerboard="0"
     inkscape:deskcolor="#d1d1d1"
     inkscape:document-units="px"
     inkscape:antialias-rendering="false"
     inkscape:lockguides="false"
     showgrid="true"
     inkscape:zoom="6.3642536"
     inkscape:cx="33.939565"
     inkscape:cy="46.902593"
     inkscape:window-width="1920"
     inkscape:window-height="1080"
     inkscape:window-x="0"
     inkscape:window-y="0"
     inkscape:window-maximized="1"
     inkscape:current-layer="layer1">
    <inkscape:grid
       id="grid7"
       units="px"
       originx="0"
       originy="0"
       spacingx="1"
       spacingy="1"
       empcolor="#0099e5"
       empopacity="0.30196078"
       color="#0099e5"
       opacity="0.14901961"
       empspacing="5"
       enabled="true"
       visible="true" />
  </sodipodi:namedview>
  <defs
     id="defs1" />
  <g
     inkscape:label="Layer 1"
     inkscape:groupmode="layer"
     id="layer1">
    <path
       id="path7"
       d="m 13,54 h 22 l 6,6 -6,6 H 13 L 7,60"
       style="stroke-width:1"
       sodipodi:nodetypes="cccccc" />
    <path
       id="path7-9"
       d="m 13,108 h 22 l 6,6 -6,6 H 13 l -6,-6"
       style="stroke-width:1"
       sodipodi:nodetypes="cccccc" />
    <path
       id="path7-3-6-2"
       d="m 12,67 v 40 l -6,6 -6,-6 V 67 l 6,-6"
       style="stroke-width:1"
       sodipodi:nodetypes="cccccc" />
    <path
       id="path7-3-6-2-5"
       d="m 48,67 v 40 l -6,6 -6,-6 V 67 l 6,-6"
       style="stroke-width:1"
       sodipodi:nodetypes="cccccc" />
    <path
       id="path7-2"
       d="m 13,0 h 22 l 6,6 -6,6 H 13 L 7,6"
       style="stroke-width:1"
       sodipodi:nodetypes="cccccc" />
    <path
       id="path7-3-6-2-9"
       d="M 12,13 V 53 L 6,59 0,53 V 13 L 6,7"
       style="stroke-width:1"
       sodipodi:nodetypes="cccccc" />
    <path
       id="path7-3-6-2-5-3"
       d="m 48,13 v 40 l -6,6 -6,-6 V 13 l 6,-6"
       style="stroke-width:1"
       sodipodi:nodetypes="cccccc" />
  </g>
</svg>
